<svg xmlns="http://www.w3.org/2000/svg" width="12" height="10.5" viewBox="0 0 12 10.5">
  <g id="_2087973" data-name="2087973" transform="translate(0 0)">
    <path id="Path_17" data-name="Path 17" d="M0,.75v6a.75.75,0,0,0,.75.75H3V0H.75A.75.75,0,0,0,0,.75Z" transform="translate(0 3)" fill="#b2b2b2"/>
    <path id="Path_18" data-name="Path 18" d="M6.865,3.78H4.649a.375.375,0,0,1-.328-.557L5.1,1.816A1.125,1.125,0,0,0,4.392.179L3.841.041a.374.374,0,0,0-.37.113L.481,3.476A1.874,1.874,0,0,0,0,4.731V8.655A1.877,1.877,0,0,0,1.875,10.53H5.606A1.879,1.879,0,0,0,7.414,9.15l.8-3.674a1.385,1.385,0,0,0-1.349-1.7Z" transform="translate(3.75 -0.03)" fill="#b2b2b2"/>
  </g>
</svg>
