<svg xmlns="http://www.w3.org/2000/svg" width="14" height="11" viewBox="0 0 14 11">
  <path id="icons8_crown_1" d="M8,3a.642.642,0,0,0-.636.647.65.65,0,0,0,.266.527L5.675,6.957,2.239,5.793a.657.657,0,0,0,.034-.2.636.636,0,1,0-.636.647.626.626,0,0,0,.138-.016l1.135,5.193H13.091L14.226,6.22a.626.626,0,0,0,.138.015.647.647,0,1,0-.636-.647.657.657,0,0,0,.034.2L10.325,6.957,8.369,4.173a.65.65,0,0,0,.267-.526A.642.642,0,0,0,8,3ZM2.909,12.706V14H13.091V12.706Z" transform="translate(-1 -3)" fill="#fff"/>
</svg>
