<svg xmlns="http://www.w3.org/2000/svg" width="20.002" height="20" viewBox="0 0 20.002 20">
  <path id="icons8_communication" d="M7.25,5A3.262,3.262,0,0,0,4,8.25V19.227a1.3,1.3,0,0,0,2.02,1.028l2.028-1.475a3.253,3.253,0,0,0,3.2,2.721h6.256l4.475,3.254A1.272,1.272,0,0,0,24,23.727V12.751a3.254,3.254,0,0,0-3.25-3.25H20V8.25A3.262,3.262,0,0,0,16.751,5Zm0,1.5h9.5A1.739,1.739,0,0,1,18.5,8.25v5.5a1.739,1.739,0,0,1-1.75,1.75h-6.5a.75.75,0,0,0-.442.144L5.5,18.779V8.25A1.739,1.739,0,0,1,7.25,6.5Zm1.5,2a.75.75,0,1,0,0,1.5h6.5a.75.75,0,1,0,0-1.5ZM20,11h.75a1.752,1.752,0,0,1,1.75,1.75V23.279l-4.309-3.134A.752.752,0,0,0,17.751,20h-6.5a1.752,1.752,0,0,1-1.75-1.75v-.527L10.495,17h6.256A3.262,3.262,0,0,0,20,13.751ZM8.75,12a.75.75,0,1,0,0,1.5h5a.75.75,0,1,0,0-1.5Z" transform="translate(-4 -5)" fill="#474747"/>
</svg>
