<svg xmlns="http://www.w3.org/2000/svg" width="10.84" height="10.202" viewBox="0 0 10.84 10.202">
  <path id="icons8_star" d="M9.423,5a.407.407,0,0,0-.366.223L7.66,7.989l-3.316.505a.405.405,0,0,0-.324.273.4.4,0,0,0,.1.41L6.413,11.45,5.9,14.738a.4.4,0,0,0,.165.389.41.41,0,0,0,.425.03L9.42,13.643l2.929,1.514a.41.41,0,0,0,.425-.03.4.4,0,0,0,.165-.389l-.511-3.288,2.293-2.272a.4.4,0,0,0,.1-.41.406.406,0,0,0-.324-.273L11.18,7.989l-1.4-2.767A.407.407,0,0,0,9.423,5Z" transform="translate(-4 -5)" fill="#b3b7c0"/>
</svg>
