<svg xmlns="http://www.w3.org/2000/svg" width="18" height="14.143" viewBox="0 0 18 14.143">
  <path id="icons8_crown_1" d="M10,3a.825.825,0,0,0-.818.832.836.836,0,0,0,.342.678L7.01,8.087l-4.417-1.5a.845.845,0,0,0,.043-.263.818.818,0,1,0-.818.832A.805.805,0,0,0,2,7.139l1.459,6.677H16.545L18,7.14a.805.805,0,0,0,.177.019.832.832,0,1,0-.818-.832.845.845,0,0,0,.043.263l-4.417,1.5-2.515-3.58a.836.836,0,0,0,.344-.676A.825.825,0,0,0,10,3ZM3.455,15.479v1.664H16.545V15.479Z" transform="translate(-1 -3)" fill="#ffd200"/>
</svg>
