<svg xmlns="http://www.w3.org/2000/svg" width="18.006" height="14.734" viewBox="0 0 18.006 14.734">
  <path id="Subtraction_825" data-name="Subtraction 825" d="M-17739.912-17693.268a1.232,1.232,0,0,1-1.225-1.234,1.228,1.228,0,0,1,1.225-1.225,1.23,1.23,0,0,1,1.23,1.225A1.235,1.235,0,0,1-17739.912-17693.268Zm-5.725,0a1.232,1.232,0,0,1-1.225-1.234,1.228,1.228,0,0,1,1.225-1.225,1.23,1.23,0,0,1,1.23,1.225A1.235,1.235,0,0,1-17745.637-17693.268Zm6.7-3.279h-7.664a2.657,2.657,0,0,1-2.611-2.156l-1.32-6.928,0-.01-.121-.633a.6.6,0,0,0-.6-.494h-1.127a.626.626,0,0,1-.615-.619.625.625,0,0,1,.615-.615h1.127a1.859,1.859,0,0,1,1.814,1.5l.021.143h13.816a.639.639,0,0,1,.473.223.626.626,0,0,1,.129.5l-1.318,6.928A2.674,2.674,0,0,1-17738.939-17696.547Zm-6.266-5.988a.279.279,0,0,0-.293.3v.588a.275.275,0,0,0,.293.295h2.064v2.063a.277.277,0,0,0,.293.295h.588a.278.278,0,0,0,.295-.295v-2.062h2.063a.278.278,0,0,0,.295-.295v-.588a.28.28,0,0,0-.295-.3h-2.062v-2.059a.275.275,0,0,0-.295-.293h-.588a.275.275,0,0,0-.293.293v2.059Z" transform="translate(17753.002 17708.002)" fill="#fff"/>
</svg>
